<svg width="121" height="40" viewBox="0 0 121 40" fill="none" xmlns="http://www.w3.org/2000/svg">
<g id="Frame 73">
<path d="M118.807 0V0.500899H120.319V1.99968H120.82V6.00002H120.319V10.0004H120.82V13.9997H120.319V18.0001H120.82V22.0004H120.319V25.9998H120.82V30.0001H120.319V33.9995H120.82V37.9998H120.319V39.4986H118.807V39.9995H114.779V39.4986H110.751V39.9995H106.725V39.4986H102.697V39.9995H98.6702V39.4986H94.6425V39.9995H90.6148V39.4986H86.588V39.9995H82.5603V39.4986H78.5335V39.9995H74.5058V39.4986H70.478V39.9995H66.4513V39.4986H62.4235V39.9995H58.3968V39.4986H54.369V39.9995H50.3413V39.4986H46.3146V39.9995H42.2868V39.4986H38.2601V39.9995H34.2323V39.4986H30.2046V39.9995H26.1778V39.4986H22.1501V39.9995H18.1233V39.4986H14.0956V39.9995H10.0679V39.4986H6.04111V39.9995H2.01338V39.4986H0.500899V37.9998H0V33.9995H0.500899V30.0001H0V25.9998H0.500899V22.0004H0V18.0001H0.500899V13.9997H0V10.0004H0.500899V6.00002H0V1.99968H0.500899V0.500899H2.01338V0H6.04111V0.500899H10.0679V0H14.0956V0.500899H18.1233V0H22.1501V0.500899H26.1778V0H30.2046V0.500899H34.2323V0H38.2601V0.500899H42.2868V0H46.3146V0.500899H50.3413V0H54.369V0.500899H58.3968V0H62.4235V0.500899H66.4513V0H70.478V0.500899H74.5058V0H78.5335V0.500899H82.5603V0H86.588V0.500899H90.6148V0H94.6425V0.500899H98.6702V0H102.697V0.500899H106.725V0H110.751V0.500899H114.779V0H118.807Z" fill="#C891FF"/>
<path d="M118.807 0V0.500899H120.319V1.99968H120.82V6.00002H120.319V10.0004H120.82V13.9997H120.319V18.0001H120.82V22.0004H120.319V25.9998H120.82V30.0001H120.319V33.9995H120.82V37.9998H120.319V39.4986H118.807V39.9995H114.779V39.4986H110.751V39.9995H106.725V39.4986H102.697V39.9995H98.6702V39.4986H94.6425V39.9995H90.6148V39.4986H86.588V39.9995H82.5603V39.4986H78.5335V39.9995H74.5058V39.4986H70.478V39.9995H66.4513V39.4986H62.4235V39.9995H58.3968V39.4986H54.369V39.9995H50.3413V39.4986H46.3146V39.9995H42.2868V39.4986H38.2601V39.9995H34.2323V39.4986H30.2046V39.9995H26.1778V39.4986H22.1501V39.9995H18.1233V39.4986H14.0956V39.9995H10.0679V39.4986H6.04111V39.9995H2.01338V39.4986H0.500899V37.9998H0V33.9995H0.500899V30.0001H0V25.9998H0.500899V22.0004H0V18.0001H0.500899V13.9997H0V10.0004H0.500899V6.00002H0V1.99968H0.500899V0.500899H2.01338V0H6.04111V0.500899H10.0679V0H14.0956V0.500899H18.1233V0H22.1501V0.500899H26.1778V0H30.2046V0.500899H34.2323V0H38.2601V0.500899H42.2868V0H46.3146V0.500899H50.3413V0H54.369V0.500899H58.3968V0H62.4235V0.500899H66.4513V0H70.478V0.500899H74.5058V0H78.5335V0.500899H82.5603V0H86.588V0.500899H90.6148V0H94.6425V0.500899H98.6702V0H102.697V0.500899H106.725V0H110.751V0.500899H114.779V0H118.807Z" stroke="#1D4ED8" stroke-dasharray="4 4"/>
<g id="Vector">
<path fill-rule="evenodd" clip-rule="evenodd" d="M69.3082 12.0935H52.5134C51.895 12.0935 51.3937 12.6061 51.3937 13.2384V26.9773C51.3937 27.6096 51.895 28.1222 52.5134 28.1222H69.3082C69.9266 28.1222 70.4279 27.6096 70.4279 26.9773V13.2384C70.4279 12.6061 69.9266 12.0935 69.3082 12.0935ZM52.513 26.9772V13.2383H69.3079V26.9772H52.513Z" fill="#1D4ED8"/>
<path fill-rule="evenodd" clip-rule="evenodd" d="M54.4727 16.8161C54.4727 18.0017 55.4126 18.9628 56.5721 18.9628C57.7315 18.9628 58.6714 18.0017 58.6714 16.8161C58.6714 15.6305 57.7315 14.6694 56.5721 14.6694C55.4126 14.6694 54.4727 15.6305 54.4727 16.8161ZM57.5514 16.816C57.5514 17.3693 57.1128 17.8178 56.5717 17.8178C56.0306 17.8178 55.592 17.3693 55.592 16.816C55.592 16.2628 56.0306 15.8142 56.5717 15.8142C57.1128 15.8142 57.5514 16.2628 57.5514 16.816Z" fill="#1D4ED8"/>
<path d="M55.4267 25.6663C55.2071 25.8889 54.8526 25.8873 54.635 25.6628C54.4173 25.4383 54.4188 25.0758 54.6384 24.8532L59.2428 20.1855L61.838 22.4937C62.0712 22.7012 62.0959 23.0628 61.8929 23.3013C61.69 23.5399 61.3364 23.565 61.1031 23.3576L59.2926 21.7472L55.4267 25.6663Z" fill="#1D4ED8"/>
<path d="M59.627 25.6648C59.4084 25.8883 59.054 25.8883 58.8353 25.6648C58.6167 25.4412 58.6167 25.0788 58.8353 24.8552L66.2034 17.3203L70.2371 20.9394C70.4695 21.148 70.4926 21.5097 70.2887 21.7473C70.0848 21.9849 69.7311 22.0086 69.4987 21.8L66.2534 18.8883L59.627 25.6648Z" fill="#1D4ED8"/>
</g>
</g>
</svg>
