<svg width="25" height="20" viewBox="0 0 25 20" fill="none" xmlns="http://www.w3.org/2000/svg">
<g id="Frame 1937">
<path id="Vector" d="M24.5788 10.8338H18.6173C18.7192 6.04543 19.9515 5.50188 21.4992 5.34674L22.0961 5.2652V-5.16668e-05L21.4081 0.0405795C19.3871 0.165896 17.1526 0.567434 15.6619 2.59564C14.3551 4.37361 13.779 7.27835 13.779 11.7374L13.779 20H24.5788V10.8338Z" fill="white"/>
<path id="Vector_2" d="M10.7997 20L10.7997 10.8338H4.91783C5.01975 6.04543 6.21219 5.50188 7.75991 5.34674L8.31702 5.2652V-5.16668e-05L7.66879 0.0405795C5.64775 0.165896 3.39333 0.567434 1.90259 2.59564C0.595946 4.37361 -2.58334e-05 7.27835 -2.58334e-05 11.7374L-2.58334e-05 20H10.7997Z" fill="white"/>
</g>
</svg>
