<svg width="121" height="40" viewBox="0 0 121 40" fill="none" xmlns="http://www.w3.org/2000/svg">
<g id="Frame 73">
<path d="M118.807 0V0.500899H120.319V1.99968H120.82V6.00002H120.319V10.0004H120.82V13.9997H120.319V18.0001H120.82V22.0004H120.319V25.9998H120.82V30.0001H120.319V33.9995H120.82V37.9998H120.319V39.4986H118.807V39.9995H114.779V39.4986H110.751V39.9995H106.725V39.4986H102.697V39.9995H98.6702V39.4986H94.6425V39.9995H90.6148V39.4986H86.588V39.9995H82.5603V39.4986H78.5335V39.9995H74.5058V39.4986H70.478V39.9995H66.4513V39.4986H62.4235V39.9995H58.3968V39.4986H54.369V39.9995H50.3413V39.4986H46.3146V39.9995H42.2868V39.4986H38.2601V39.9995H34.2323V39.4986H30.2046V39.9995H26.1778V39.4986H22.1501V39.9995H18.1233V39.4986H14.0956V39.9995H10.0679V39.4986H6.04111V39.9995H2.01338V39.4986H0.500899V37.9998H0V33.9995H0.500899V30.0001H0V25.9998H0.500899V22.0004H0V18.0001H0.500899V13.9997H0V10.0004H0.500899V6.00002H0V1.99968H0.500899V0.500899H2.01338V0H6.04111V0.500899H10.0679V0H14.0956V0.500899H18.1233V0H22.1501V0.500899H26.1778V0H30.2046V0.500899H34.2323V0H38.2601V0.500899H42.2868V0H46.3146V0.500899H50.3413V0H54.369V0.500899H58.3968V0H62.4235V0.500899H66.4513V0H70.478V0.500899H74.5058V0H78.5335V0.500899H82.5603V0H86.588V0.500899H90.6148V0H94.6425V0.500899H98.6702V0H102.697V0.500899H106.725V0H110.751V0.500899H114.779V0H118.807Z" fill="#C891FF"/>
<path d="M118.807 0V0.500899H120.319V1.99968H120.82V6.00002H120.319V10.0004H120.82V13.9997H120.319V18.0001H120.82V22.0004H120.319V25.9998H120.82V30.0001H120.319V33.9995H120.82V37.9998H120.319V39.4986H118.807V39.9995H114.779V39.4986H110.751V39.9995H106.725V39.4986H102.697V39.9995H98.6702V39.4986H94.6425V39.9995H90.6148V39.4986H86.588V39.9995H82.5603V39.4986H78.5335V39.9995H74.5058V39.4986H70.478V39.9995H66.4513V39.4986H62.4235V39.9995H58.3968V39.4986H54.369V39.9995H50.3413V39.4986H46.3146V39.9995H42.2868V39.4986H38.2601V39.9995H34.2323V39.4986H30.2046V39.9995H26.1778V39.4986H22.1501V39.9995H18.1233V39.4986H14.0956V39.9995H10.0679V39.4986H6.04111V39.9995H2.01338V39.4986H0.500899V37.9998H0V33.9995H0.500899V30.0001H0V25.9998H0.500899V22.0004H0V18.0001H0.500899V13.9997H0V10.0004H0.500899V6.00002H0V1.99968H0.500899V0.500899H2.01338V0H6.04111V0.500899H10.0679V0H14.0956V0.500899H18.1233V0H22.1501V0.500899H26.1778V0H30.2046V0.500899H34.2323V0H38.2601V0.500899H42.2868V0H46.3146V0.500899H50.3413V0H54.369V0.500899H58.3968V0H62.4235V0.500899H66.4513V0H70.478V0.500899H74.5058V0H78.5335V0.500899H82.5603V0H86.588V0.500899H90.6148V0H94.6425V0.500899H98.6702V0H102.697V0.500899H106.725V0H110.751V0.500899H114.779V0H118.807Z" stroke="#1D4ED8" stroke-dasharray="4 4"/>
<g id="Vector">
<path fill-rule="evenodd" clip-rule="evenodd" d="M68.9745 12.0935H52.1797C51.5613 12.0935 51.06 12.6061 51.06 13.2384V26.9773C51.06 27.6096 51.5613 28.1222 52.1797 28.1222H68.9745C69.5929 28.1222 70.0942 27.6096 70.0942 26.9773V13.2384C70.0942 12.6061 69.5929 12.0935 68.9745 12.0935ZM52.1793 26.9772V13.2383H68.9742V26.9772H52.1793Z" fill="#1D4ED8"/>
<path fill-rule="evenodd" clip-rule="evenodd" d="M54.139 16.8161C54.139 18.0017 55.0789 18.9628 56.2383 18.9628C57.3978 18.9628 58.3377 18.0017 58.3377 16.8161C58.3377 15.6305 57.3978 14.6694 56.2383 14.6694C55.0789 14.6694 54.139 15.6305 54.139 16.8161ZM57.2177 16.816C57.2177 17.3693 56.779 17.8178 56.238 17.8178C55.6969 17.8178 55.2583 17.3693 55.2583 16.816C55.2583 16.2628 55.6969 15.8142 56.238 15.8142C56.779 15.8142 57.2177 16.2628 57.2177 16.816Z" fill="#1D4ED8"/>
<path d="M55.0929 25.6663C54.8734 25.8889 54.5189 25.8873 54.3012 25.6628C54.0835 25.4383 54.0851 25.0758 54.3047 24.8532L58.9091 20.1855L61.5042 22.4937C61.7375 22.7012 61.7621 23.0628 61.5592 23.3013C61.3563 23.5399 61.0027 23.565 60.7694 23.3576L58.9589 21.7472L55.0929 25.6663Z" fill="#1D4ED8"/>
<path d="M59.2933 25.6648C59.0747 25.8883 58.7202 25.8883 58.5016 25.6648C58.283 25.4412 58.2829 25.0788 58.5016 24.8552L65.8696 17.3203L69.9034 20.9394C70.1358 21.148 70.1589 21.5097 69.955 21.7473C69.7511 21.9849 69.3973 22.0086 69.1649 21.8L65.9197 18.8883L59.2933 25.6648Z" fill="#1D4ED8"/>
</g>
</g>
</svg>
