<svg width="121" height="40" viewBox="0 0 121 40" fill="none" xmlns="http://www.w3.org/2000/svg">
<g id="Frame 73">
<path d="M118.807 0V0.500899H120.319V1.99968H120.82V6.00002H120.319V10.0004H120.82V13.9997H120.319V18.0001H120.82V22.0004H120.319V25.9998H120.82V30.0001H120.319V33.9995H120.82V37.9998H120.319V39.4986H118.807V39.9995H114.779V39.4986H110.751V39.9995H106.725V39.4986H102.697V39.9995H98.6702V39.4986H94.6425V39.9995H90.6148V39.4986H86.588V39.9995H82.5603V39.4986H78.5335V39.9995H74.5058V39.4986H70.478V39.9995H66.4513V39.4986H62.4235V39.9995H58.3968V39.4986H54.369V39.9995H50.3413V39.4986H46.3146V39.9995H42.2868V39.4986H38.2601V39.9995H34.2323V39.4986H30.2046V39.9995H26.1778V39.4986H22.1501V39.9995H18.1233V39.4986H14.0956V39.9995H10.0679V39.4986H6.04111V39.9995H2.01338V39.4986H0.500899V37.9998H0V33.9995H0.500899V30.0001H0V25.9998H0.500899V22.0004H0V18.0001H0.500899V13.9997H0V10.0004H0.500899V6.00002H0V1.99968H0.500899V0.500899H2.01338V0H6.04111V0.500899H10.0679V0H14.0956V0.500899H18.1233V0H22.1501V0.500899H26.1778V0H30.2046V0.500899H34.2323V0H38.2601V0.500899H42.2868V0H46.3146V0.500899H50.3413V0H54.369V0.500899H58.3968V0H62.4235V0.500899H66.4513V0H70.478V0.500899H74.5058V0H78.5335V0.500899H82.5603V0H86.588V0.500899H90.6148V0H94.6425V0.500899H98.6702V0H102.697V0.500899H106.725V0H110.751V0.500899H114.779V0H118.807Z" fill="#C891FF"/>
<path d="M118.807 0V0.500899H120.319V1.99968H120.82V6.00002H120.319V10.0004H120.82V13.9997H120.319V18.0001H120.82V22.0004H120.319V25.9998H120.82V30.0001H120.319V33.9995H120.82V37.9998H120.319V39.4986H118.807V39.9995H114.779V39.4986H110.751V39.9995H106.725V39.4986H102.697V39.9995H98.6702V39.4986H94.6425V39.9995H90.6148V39.4986H86.588V39.9995H82.5603V39.4986H78.5335V39.9995H74.5058V39.4986H70.478V39.9995H66.4513V39.4986H62.4235V39.9995H58.3968V39.4986H54.369V39.9995H50.3413V39.4986H46.3146V39.9995H42.2868V39.4986H38.2601V39.9995H34.2323V39.4986H30.2046V39.9995H26.1778V39.4986H22.1501V39.9995H18.1233V39.4986H14.0956V39.9995H10.0679V39.4986H6.04111V39.9995H2.01338V39.4986H0.500899V37.9998H0V33.9995H0.500899V30.0001H0V25.9998H0.500899V22.0004H0V18.0001H0.500899V13.9997H0V10.0004H0.500899V6.00002H0V1.99968H0.500899V0.500899H2.01338V0H6.04111V0.500899H10.0679V0H14.0956V0.500899H18.1233V0H22.1501V0.500899H26.1778V0H30.2046V0.500899H34.2323V0H38.2601V0.500899H42.2868V0H46.3146V0.500899H50.3413V0H54.369V0.500899H58.3968V0H62.4235V0.500899H66.4513V0H70.478V0.500899H74.5058V0H78.5335V0.500899H82.5603V0H86.588V0.500899H90.6148V0H94.6425V0.500899H98.6702V0H102.697V0.500899H106.725V0H110.751V0.500899H114.779V0H118.807Z" stroke="#1D4ED8" stroke-dasharray="4 4"/>
<g id="Vector">
<path fill-rule="evenodd" clip-rule="evenodd" d="M69.3084 12.0935H52.5135C51.8951 12.0935 51.3939 12.6061 51.3939 13.2384V26.9773C51.3939 27.6096 51.8951 28.1222 52.5135 28.1222H69.3084C69.9267 28.1222 70.428 27.6096 70.428 26.9773V13.2384C70.428 12.6061 69.9267 12.0935 69.3084 12.0935ZM52.5132 26.9772V13.2383H69.308V26.9772H52.5132Z" fill="#1D4ED8"/>
<path fill-rule="evenodd" clip-rule="evenodd" d="M54.4728 16.8161C54.4728 18.0017 55.4127 18.9628 56.5722 18.9628C57.7316 18.9628 58.6715 18.0017 58.6715 16.8161C58.6715 15.6305 57.7316 14.6694 56.5722 14.6694C55.4127 14.6694 54.4728 15.6305 54.4728 16.8161ZM57.5515 16.816C57.5515 17.3693 57.1129 17.8178 56.5718 17.8178C56.0307 17.8178 55.5921 17.3693 55.5921 16.816C55.5921 16.2628 56.0307 15.8142 56.5718 15.8142C57.1129 15.8142 57.5515 16.2628 57.5515 16.816Z" fill="#1D4ED8"/>
<path d="M55.4268 25.6663C55.2072 25.8889 54.8528 25.8873 54.6351 25.6628C54.4174 25.4383 54.4189 25.0758 54.6385 24.8532L59.2429 20.1855L61.8381 22.4937C62.0714 22.7012 62.096 23.0628 61.8931 23.3013C61.6902 23.5399 61.3366 23.565 61.1033 23.3576L59.2927 21.7472L55.4268 25.6663Z" fill="#1D4ED8"/>
<path d="M59.6272 25.6648C59.4085 25.8883 59.0541 25.8883 58.8354 25.6648C58.6168 25.4412 58.6168 25.0788 58.8354 24.8552L66.2035 17.3203L70.2372 20.9394C70.4697 21.148 70.4927 21.5097 70.2888 21.7473C70.0849 21.9849 69.7312 22.0086 69.4988 21.8L66.2535 18.8883L59.6272 25.6648Z" fill="#1D4ED8"/>
</g>
</g>
</svg>
