<svg width="352" height="216" viewBox="0 0 352 216" fill="none" xmlns="http://www.w3.org/2000/svg">
<g id="Frame 811338">
<path d="M348.966 0V0.5H351.5V3H352V9H351.5V15H352V21H351.5V27H352V33H351.5V39H352V45H351.5V51H352V57H351.5V63H352V69H351.5V75H352V81H351.5V87H352V93H351.5V99H352V105H351.5V111H352V117H351.5V123H352V129H351.5V135H352V141H351.5V147H352V153H351.5V159H352V165H351.5V171H352V177H351.5V183H352V189H351.5V195H352V201H351.5V207H352V213H351.5V215.5H348.966V216H342.896V215.5H336.828V216H330.759V215.5H324.689V216H318.621V215.5H312.552V216H306.482V215.5H300.414V216H294.345V215.5H288.276V216H282.207V215.5H276.138V216H270.069V215.5H264V216H257.931V215.5H251.862V216H245.793V215.5H239.725V216H233.655V215.5H227.586V216H221.518V215.5H215.448V216H209.379V215.5H203.311V216H197.241V215.5H191.173V216H185.104V215.5H179.034V216H172.966V215.5H166.896V216H160.827V215.5H154.759V216H148.689V215.5H142.621V216H136.552V215.5H130.482V216H124.414V215.5H118.345V216H112.275V215.5H106.207V216H100.138V215.5H94.0693V216H88V215.5H81.9307V216H75.8623V215.5H69.793V216H63.7246V215.5H57.6553V216H51.5859V215.5H45.5176V216H39.4482V215.5H33.3789V216H27.3105V215.5H21.2412V216H15.1729V215.5H9.10352V216H3.03418V215.5H0.5V213H0V207H0.5V201H0V195H0.5V189H0V183H0.5V177H0V171H0.5V165H0V159H0.5V153H0V147H0.5V141H0V135H0.5V129H0V123H0.5V117H0V111H0.5V105H0V99H0.5V93H0V87H0.5V81H0V75H0.5V69H0V63H0.5V57H0V51H0.5V45H0V39H0.5V33H0V27H0.5V21H0V15H0.5V9H0V3H0.5V0.5H3.03418V0H9.10352V0.5H15.1719V0H21.2412V0.5H27.3105V0H33.3789V0.5H39.4482V0H45.5176V0.5H51.5859V0H57.6553V0.5H63.7236V0H69.793V0.5H75.8623V0H81.9307V0.5H88V0H94.0693V0.5H100.138V0H106.207V0.5H112.275V0H118.345V0.5H124.414V0H130.482V0.5H136.552V0H142.621V0.5H148.689V0H154.759V0.5H160.827V0H166.896V0.5H172.966V0H179.034V0.5H185.104V0H191.173V0.5H197.241V0H203.311V0.5H209.379V0H215.448V0.5H221.518V0H227.586V0.5H233.655V0H239.725V0.5H245.793V0H251.862V0.5H257.931V0H264V0.5H270.069V0H276.138V0.5H282.207V0H288.275V0.5H294.345V0H300.414V0.5H306.482V0H312.552V0.5H318.621V0H324.689V0.5H330.759V0H336.827V0.5H342.896V0H348.966Z" fill="#F7F3FF"/>
<path d="M348.966 0V0.5H351.5V3H352V9H351.5V15H352V21H351.5V27H352V33H351.5V39H352V45H351.5V51H352V57H351.5V63H352V69H351.5V75H352V81H351.5V87H352V93H351.5V99H352V105H351.5V111H352V117H351.5V123H352V129H351.5V135H352V141H351.5V147H352V153H351.5V159H352V165H351.5V171H352V177H351.5V183H352V189H351.5V195H352V201H351.5V207H352V213H351.5V215.5H348.966V216H342.896V215.5H336.828V216H330.759V215.5H324.689V216H318.621V215.5H312.552V216H306.482V215.5H300.414V216H294.345V215.5H288.276V216H282.207V215.5H276.138V216H270.069V215.5H264V216H257.931V215.5H251.862V216H245.793V215.5H239.725V216H233.655V215.5H227.586V216H221.518V215.5H215.448V216H209.379V215.5H203.311V216H197.241V215.5H191.173V216H185.104V215.5H179.034V216H172.966V215.5H166.896V216H160.827V215.5H154.759V216H148.689V215.5H142.621V216H136.552V215.5H130.482V216H124.414V215.5H118.345V216H112.275V215.5H106.207V216H100.138V215.5H94.0693V216H88V215.5H81.9307V216H75.8623V215.5H69.793V216H63.7246V215.5H57.6553V216H51.5859V215.5H45.5176V216H39.4482V215.5H33.3789V216H27.3105V215.5H21.2412V216H15.1729V215.5H9.10352V216H3.03418V215.5H0.5V213H0V207H0.5V201H0V195H0.5V189H0V183H0.5V177H0V171H0.5V165H0V159H0.5V153H0V147H0.5V141H0V135H0.5V129H0V123H0.5V117H0V111H0.5V105H0V99H0.5V93H0V87H0.5V81H0V75H0.5V69H0V63H0.5V57H0V51H0.5V45H0V39H0.5V33H0V27H0.5V21H0V15H0.5V9H0V3H0.5V0.5H3.03418V0H9.10352V0.5H15.1719V0H21.2412V0.5H27.3105V0H33.3789V0.5H39.4482V0H45.5176V0.5H51.5859V0H57.6553V0.5H63.7236V0H69.793V0.5H75.8623V0H81.9307V0.5H88V0H94.0693V0.5H100.138V0H106.207V0.5H112.275V0H118.345V0.5H124.414V0H130.482V0.5H136.552V0H142.621V0.5H148.689V0H154.759V0.5H160.827V0H166.896V0.5H172.966V0H179.034V0.5H185.104V0H191.173V0.5H197.241V0H203.311V0.5H209.379V0H215.448V0.5H221.518V0H227.586V0.5H233.655V0H239.725V0.5H245.793V0H251.862V0.5H257.931V0H264V0.5H270.069V0H276.138V0.5H282.207V0H288.275V0.5H294.345V0H300.414V0.5H306.482V0H312.552V0.5H318.621V0H324.689V0.5H330.759V0H336.827V0.5H342.896V0H348.966Z" stroke="#2563EB" stroke-dasharray="6 6"/>
<g id="Vector">
<path fill-rule="evenodd" clip-rule="evenodd" d="M206.744 79H146.047C143.812 79 142 80.8333 142 83.0947V132.231C142 134.492 143.812 136.326 146.047 136.326H206.744C208.979 136.326 210.791 134.492 210.791 132.231V83.0947C210.791 80.8333 208.979 79 206.744 79ZM146.045 132.231V83.0944H206.743V132.231H146.045Z" fill="#2563EB"/>
<path fill-rule="evenodd" clip-rule="evenodd" d="M153.128 95.8902C153.128 100.13 156.524 103.568 160.715 103.568C164.905 103.568 168.302 100.13 168.302 95.8902C168.302 91.65 164.905 88.2126 160.715 88.2126C156.524 88.2126 153.128 91.65 153.128 95.8902ZM164.254 95.8899C164.254 97.8686 162.669 99.4727 160.713 99.4727C158.758 99.4727 157.173 97.8686 157.173 95.8899C157.173 93.9111 158.758 92.307 160.713 92.307C162.669 92.307 164.254 93.9111 164.254 95.8899Z" fill="#2563EB"/>
<path d="M156.575 127.542C155.782 128.338 154.501 128.333 153.714 127.53C152.927 126.727 152.933 125.43 153.726 124.634L170.367 107.94L179.746 116.196C180.589 116.938 180.678 118.231 179.945 119.084C179.212 119.937 177.934 120.027 177.09 119.285L170.547 113.526L156.575 127.542Z" fill="#2563EB"/>
<path d="M171.756 127.537C170.966 128.336 169.685 128.336 168.894 127.537C168.104 126.737 168.104 125.441 168.894 124.641L195.523 97.6932L210.101 110.637C210.941 111.383 211.025 112.676 210.288 113.526C209.551 114.376 208.272 114.461 207.432 113.715L195.704 103.301L171.756 127.537Z" fill="#2563EB"/>
</g>
</g>
</svg>
