<svg width="40" height="33" viewBox="0 0 40 33" fill="none" xmlns="http://www.w3.org/2000/svg">
<g id="Vector">
<path fill-rule="evenodd" clip-rule="evenodd" d="M37.6471 0H2.35294C1.05345 0 0 1.05533 0 2.35714V30.6429C0 31.9447 1.05345 33 2.35294 33H37.6471C38.9465 33 40 31.9447 40 30.6429V2.35714C40 1.05533 38.9465 0 37.6471 0ZM2.35221 30.6427V2.35696H37.6463V30.6427H2.35221Z" fill="#1D4ED8"/>
<path fill-rule="evenodd" clip-rule="evenodd" d="M6.47039 9.72298C6.47039 12.1639 8.4456 14.1426 10.8822 14.1426C13.3187 14.1426 15.2939 12.1639 15.2939 9.72298C15.2939 7.28208 13.3187 5.30333 10.8822 5.30333C8.4456 5.30333 6.47039 7.28208 6.47039 9.72298ZM12.9402 9.7228C12.9402 10.8619 12.0184 11.7853 10.8814 11.7853C9.74434 11.7853 8.82257 10.8619 8.82257 9.7228C8.82257 8.58371 9.74434 7.66029 10.8814 7.66029C12.0184 7.66029 12.9402 8.58371 12.9402 9.7228Z" fill="#1D4ED8"/>
<path d="M8.47514 27.9437C8.01372 28.402 7.26883 28.3988 6.81138 27.9365C6.35393 27.4743 6.35715 26.7281 6.81857 26.2698L16.4947 16.6598L21.9484 21.412C22.4386 21.8391 22.4904 22.5836 22.0639 23.0747C21.6375 23.5658 20.8944 23.6176 20.4042 23.1905L16.5993 19.8751L8.47514 27.9437Z" fill="#1D4ED8"/>
<path d="M17.3022 27.9405C16.8427 28.4008 16.0978 28.4009 15.6384 27.9406C15.1789 27.4804 15.1789 26.7341 15.6383 26.2739L31.1222 10.7609L39.5991 18.2121C40.0875 18.6414 40.136 19.386 39.7075 19.8753C39.279 20.3645 38.5356 20.4132 38.0473 19.9839L31.2274 13.9892L17.3022 27.9405Z" fill="#1D4ED8"/>
</g>
</svg>
