<svg width="25" height="20" viewBox="0 0 25 20" fill="none" xmlns="http://www.w3.org/2000/svg">
<g id="Frame 1936">
<path id="Vector" d="M24.657 10.8338H18.6766C18.7788 6.04543 20.015 5.50188 21.5677 5.34674L22.1664 5.2652V-5.16668e-05L21.4763 0.0405795C19.4488 0.165896 17.2072 0.567434 15.7118 2.59564C14.4008 4.37361 13.8229 7.27835 13.8229 11.7374L13.8229 20H24.657V10.8338Z" fill="#4B5563"/>
<path id="Vector_2" d="M10.8341 20L10.8341 10.8338H4.93352C5.03576 6.04543 6.23199 5.50188 7.78464 5.34674L8.34353 5.2652L8.34353 -5.16668e-05L7.69323 0.0405795C5.66575 0.165896 3.40416 0.567434 1.90867 2.59564C0.597864 4.37361 -5.74076e-06 7.27835 -5.74076e-06 11.7374L-5.74076e-06 20H10.8341Z" fill="#4B5563"/>
</g>
</svg>
