<svg width="30" height="30" viewBox="0 0 30 30" fill="none" xmlns="http://www.w3.org/2000/svg">
<path id="Shape" d="M15 0C23.2843 0 30 6.71573 30 15C30 23.2843 23.2843 30 15 30C6.71573 30 0 23.2843 0 15C0 6.71573 6.71573 0 15 0ZM15 3C8.37258 3 3 8.37258 3 15C3 21.6274 8.37258 27 15 27C21.6274 27 27 21.6274 27 15C27 8.37258 21.6274 3 15 3ZM15 9C15.8284 9 16.5 9.67157 16.5 10.5V13.5H19.5C20.3284 13.5 21 14.1716 21 15C21 15.8284 20.3284 16.5 19.5 16.5H16.5V19.5C16.5 20.3284 15.8284 21 15 21C14.1716 21 13.5 20.3284 13.5 19.5V16.5H10.5C9.67157 16.5 9 15.8284 9 15C9 14.1716 9.67157 13.5 10.5 13.5H13.5V10.5C13.5 9.67157 14.1716 9 15 9Z" fill="#D9D9D9"/>
</svg>
