<svg width="9" height="4" viewBox="0 0 9 4" fill="none" xmlns="http://www.w3.org/2000/svg">
<path d="M0.924186 0.48255C0.828767 0.48255 0.761974 0.463466 0.723807 0.425299C0.685639 0.384405 0.666556 0.333969 0.666556 0.273992V0.208562C0.666556 0.148585 0.685639 0.0995123 0.723807 0.0613449C0.761974 0.0204512 0.828767 4.38742e-06 0.924186 4.38742e-06C1.0196 4.38742e-06 1.0864 0.0204512 1.12457 0.0613449C1.16273 0.0995123 1.18182 0.148585 1.18182 0.208562V0.273992C1.18182 0.333969 1.16273 0.384405 1.12457 0.425299C1.0864 0.463466 1.0196 0.48255 0.924186 0.48255ZM-1.1456e-05 2.78078H0.760611V1.22682H-1.1456e-05V0.948738H1.08776V2.78078H1.79931V3.05885H-1.1456e-05V2.78078ZM3.31896 3.10792C3.16629 3.10792 3.02998 3.08203 2.91002 3.03023C2.79279 2.9757 2.69329 2.90073 2.6115 2.80531C2.52971 2.70989 2.46701 2.59403 2.42339 2.45772C2.38249 2.3214 2.36205 2.1701 2.36205 2.0038C2.36205 1.83749 2.38386 1.68619 2.42748 1.54988C2.4711 1.41356 2.5338 1.2977 2.61559 1.20228C2.69737 1.10413 2.79688 1.02916 2.91411 0.977364C3.03134 0.925565 3.16493 0.899666 3.31487 0.899666C3.51934 0.899666 3.68564 0.944649 3.81377 1.03461C3.94191 1.12458 4.03596 1.24181 4.09594 1.3863L3.83422 1.52534C3.79605 1.41629 3.73199 1.33178 3.64202 1.2718C3.55478 1.21182 3.44573 1.18183 3.31487 1.18183C3.21945 1.18183 3.13357 1.19819 3.05724 1.2309C2.98363 1.26089 2.92093 1.30451 2.86913 1.36176C2.81733 1.41902 2.7778 1.48717 2.75054 1.56623C2.726 1.64529 2.71373 1.73117 2.71373 1.82386V2.18373C2.71373 2.27642 2.726 2.3623 2.75054 2.44136C2.7778 2.52042 2.81733 2.58858 2.86913 2.64583C2.92093 2.70308 2.98499 2.74806 3.06133 2.78078C3.13766 2.81076 3.2249 2.82576 3.32305 2.82576C3.46481 2.82576 3.58204 2.79304 3.67473 2.72761C3.76743 2.66218 3.84103 2.57222 3.89556 2.45772L4.12865 2.6172C4.06595 2.75897 3.96781 2.87619 3.83422 2.96889C3.70336 3.06158 3.53161 3.10792 3.31896 3.10792ZM5.69737 3.10792C5.55016 3.10792 5.41657 3.08203 5.29662 3.03023C5.17939 2.97843 5.07852 2.90482 4.994 2.8094C4.91222 2.71126 4.84951 2.59539 4.80589 2.4618C4.76227 2.32549 4.74046 2.17282 4.74046 2.0038C4.74046 1.83749 4.76227 1.68619 4.80589 1.54988C4.84951 1.41356 4.91222 1.2977 4.994 1.20228C5.07852 1.10413 5.17939 1.02916 5.29662 0.977364C5.41657 0.925565 5.55016 0.899666 5.69737 0.899666C5.84459 0.899666 5.97681 0.925565 6.09404 0.977364C6.214 1.02916 6.31487 1.10413 6.39666 1.20228C6.48117 1.2977 6.54524 1.41356 6.58886 1.54988C6.63248 1.68619 6.65429 1.83749 6.65429 2.0038C6.65429 2.17282 6.63248 2.32549 6.58886 2.4618C6.54524 2.59539 6.48117 2.71126 6.39666 2.8094C6.31487 2.90482 6.214 2.97843 6.09404 3.03023C5.97681 3.08203 5.84459 3.10792 5.69737 3.10792ZM5.69737 2.82576C5.88003 2.82576 6.02725 2.77123 6.13903 2.66218C6.2508 2.55313 6.30669 2.38411 6.30669 2.1551V1.85249C6.30669 1.62348 6.2508 1.45446 6.13903 1.34541C6.02725 1.23636 5.88003 1.18183 5.69737 1.18183C5.51472 1.18183 5.3675 1.23636 5.25572 1.34541C5.14395 1.45446 5.08806 1.62348 5.08806 1.85249V2.1551C5.08806 2.38411 5.14395 2.55313 5.25572 2.66218C5.3675 2.77123 5.51472 2.82576 5.69737 2.82576ZM7.32335 3.05885V0.948738H7.6505V1.29225H7.66685C7.68866 1.24045 7.71592 1.19137 7.74864 1.14503C7.78135 1.09596 7.82089 1.0537 7.86723 1.01826C7.9163 0.982816 7.97356 0.95419 8.03899 0.93238C8.10442 0.910571 8.18075 0.899666 8.26799 0.899666C8.48882 0.899666 8.66602 0.970548 8.79961 1.11231C8.93319 1.25135 8.99999 1.449 8.99999 1.70527V3.05885H8.67284V1.76252C8.67284 1.56896 8.63058 1.42583 8.54607 1.33314C8.46155 1.23772 8.33751 1.19001 8.17393 1.19001C8.1085 1.19001 8.04444 1.19819 7.98173 1.21455C7.91903 1.2309 7.86314 1.25544 7.81407 1.28816C7.765 1.32087 7.72547 1.36313 7.69548 1.41493C7.66549 1.46672 7.6505 1.5267 7.6505 1.59486V3.05885H7.32335Z" fill="#201435"/>
</svg>
