<svg width="9" height="4" viewBox="0 0 9 4" fill="none" xmlns="http://www.w3.org/2000/svg">
<path d="M0.924189 0.482551C0.82877 0.482551 0.761977 0.463468 0.723809 0.4253C0.685642 0.384406 0.666558 0.333971 0.666558 0.273993V0.208563C0.666558 0.148585 0.685642 0.0995126 0.723809 0.0613451C0.761977 0.0204513 0.82877 4.38743e-06 0.924189 4.38743e-06C1.01961 4.38743e-06 1.0864 0.0204513 1.12457 0.0613451C1.16274 0.0995126 1.18182 0.148585 1.18182 0.208563V0.273993C1.18182 0.333971 1.16274 0.384406 1.12457 0.4253C1.0864 0.463468 1.01961 0.482551 0.924189 0.482551ZM-1.14561e-05 2.78079H0.760614V1.22682H-1.14561e-05V0.948741H1.08776V2.78079H1.79932V3.05886H-1.14561e-05V2.78079ZM3.31897 3.10794C3.1663 3.10794 3.02999 3.08204 2.91003 3.03024C2.7928 2.97571 2.69329 2.90074 2.61151 2.80532C2.52972 2.7099 2.46702 2.59404 2.4234 2.45772C2.3825 2.32141 2.36205 2.1701 2.36205 2.0038C2.36205 1.8375 2.38386 1.68619 2.42748 1.54988C2.4711 1.41357 2.53381 1.2977 2.6156 1.20228C2.69738 1.10414 2.79689 1.02917 2.91412 0.977367C3.03135 0.925568 3.16494 0.899669 3.31488 0.899669C3.51935 0.899669 3.68565 0.944652 3.81379 1.03462C3.94192 1.12458 4.03598 1.24181 4.09595 1.38631L3.83423 1.52534C3.79606 1.41629 3.732 1.33178 3.64203 1.2718C3.55479 1.21182 3.44574 1.18184 3.31488 1.18184C3.21946 1.18184 3.13358 1.19819 3.05725 1.23091C2.98364 1.2609 2.92094 1.30452 2.86914 1.36177C2.81734 1.41902 2.77781 1.48718 2.75055 1.56624C2.72601 1.6453 2.71374 1.73118 2.71374 1.82387V2.18374C2.71374 2.27643 2.72601 2.3623 2.75055 2.44137C2.77781 2.52043 2.81734 2.58858 2.86914 2.64584C2.92094 2.70309 2.985 2.74807 3.06134 2.78079C3.13767 2.81077 3.22491 2.82577 3.32306 2.82577C3.46482 2.82577 3.58205 2.79305 3.67475 2.72762C3.76744 2.66219 3.84105 2.57223 3.89557 2.45772L4.12867 2.61721C4.06596 2.75897 3.96782 2.8762 3.83423 2.9689C3.70337 3.06159 3.53162 3.10794 3.31897 3.10794ZM5.69739 3.10794C5.55018 3.10794 5.41659 3.08204 5.29663 3.03024C5.17941 2.97844 5.07853 2.90483 4.99402 2.80941C4.91223 2.71127 4.84953 2.5954 4.80591 2.46181C4.76229 2.3255 4.74048 2.17283 4.74048 2.0038C4.74048 1.8375 4.76229 1.68619 4.80591 1.54988C4.84953 1.41357 4.91223 1.2977 4.99402 1.20228C5.07853 1.10414 5.17941 1.02917 5.29663 0.977367C5.41659 0.925568 5.55018 0.899669 5.69739 0.899669C5.84461 0.899669 5.97684 0.925568 6.09406 0.977367C6.21402 1.02917 6.31489 1.10414 6.39668 1.20228C6.48119 1.2977 6.54526 1.41357 6.58888 1.54988C6.6325 1.68619 6.65431 1.8375 6.65431 2.0038C6.65431 2.17283 6.6325 2.3255 6.58888 2.46181C6.54526 2.5954 6.48119 2.71127 6.39668 2.80941C6.31489 2.90483 6.21402 2.97844 6.09406 3.03024C5.97684 3.08204 5.84461 3.10794 5.69739 3.10794ZM5.69739 2.82577C5.88005 2.82577 6.02727 2.77124 6.13905 2.66219C6.25082 2.55314 6.30671 2.38411 6.30671 2.15511V1.85249C6.30671 1.62349 6.25082 1.45446 6.13905 1.34541C6.02727 1.23636 5.88005 1.18184 5.69739 1.18184C5.51473 1.18184 5.36752 1.23636 5.25574 1.34541C5.14396 1.45446 5.08808 1.62349 5.08808 1.85249V2.15511C5.08808 2.38411 5.14396 2.55314 5.25574 2.66219C5.36752 2.77124 5.51473 2.82577 5.69739 2.82577ZM7.32337 3.05886V0.948741H7.65052V1.29225H7.66688C7.68869 1.24045 7.71595 1.19138 7.74867 1.14503C7.78138 1.09596 7.82091 1.0537 7.86726 1.01826C7.91633 0.982819 7.97358 0.954194 8.03901 0.932384C8.10444 0.910574 8.18078 0.899669 8.26802 0.899669C8.48885 0.899669 8.66605 0.970551 8.79964 1.11232C8.93322 1.25136 9.00002 1.44901 9.00002 1.70528V3.05886H8.67287V1.76253C8.67287 1.56896 8.63061 1.42584 8.5461 1.33314C8.46158 1.23772 8.33754 1.19001 8.17396 1.19001C8.10853 1.19001 8.04447 1.19819 7.98176 1.21455C7.91906 1.23091 7.86317 1.25545 7.8141 1.28816C7.76502 1.32088 7.72549 1.36313 7.6955 1.41493C7.66552 1.46673 7.65052 1.52671 7.65052 1.59486V3.05886H7.32337Z" fill="#201435"/>
</svg>
