<svg width="9" height="4" viewBox="0 0 9 4" fill="none" xmlns="http://www.w3.org/2000/svg">
<path d="M0.924245 0.482548C0.828827 0.482548 0.762034 0.463464 0.723867 0.425297C0.685699 0.384404 0.666616 0.333968 0.666616 0.273991V0.208561C0.666616 0.148584 0.685699 0.099512 0.723867 0.0613447C0.762034 0.0204511 0.828827 4.3874e-06 0.924245 4.3874e-06C1.01966 4.3874e-06 1.08646 0.0204511 1.12462 0.0613447C1.16279 0.099512 1.18187 0.148584 1.18187 0.208561V0.273991C1.18187 0.333968 1.16279 0.384404 1.12462 0.425297C1.08646 0.463464 1.01966 0.482548 0.924245 0.482548ZM5.09426e-05 2.78077H0.760671V1.22681H5.09426e-05V0.948735H1.08782V2.78077H1.79937V3.05884H5.09426e-05V2.78077ZM3.31901 3.10791C3.16634 3.10791 3.03003 3.08201 2.91007 3.03022C2.79285 2.97569 2.69334 2.90072 2.61155 2.8053C2.52976 2.70988 2.46706 2.59402 2.42344 2.45771C2.38255 2.32139 2.3621 2.17009 2.3621 2.00379C2.3621 1.83749 2.38391 1.68618 2.42753 1.54987C2.47115 1.41356 2.53385 1.29769 2.61564 1.20227C2.69743 1.10413 2.79694 1.02916 2.91416 0.97736C3.03139 0.925562 3.16498 0.899663 3.31492 0.899663C3.51939 0.899663 3.68569 0.944645 3.81382 1.03461C3.94195 1.12458 4.03601 1.24181 4.09599 1.3863L3.83427 1.52533C3.7961 1.41628 3.73203 1.33177 3.64207 1.27179C3.55483 1.21182 3.44578 1.18183 3.31492 1.18183C3.2195 1.18183 3.13363 1.19819 3.05729 1.2309C2.98368 1.26089 2.92098 1.30451 2.86918 1.36176C2.81738 1.41901 2.77785 1.48717 2.75059 1.56623C2.72605 1.64529 2.71379 1.73116 2.71379 1.82386V2.18372C2.71379 2.27641 2.72605 2.36229 2.75059 2.44135C2.77785 2.52041 2.81738 2.58857 2.86918 2.64582C2.92098 2.70307 2.98505 2.74805 3.06138 2.78077C3.13771 2.81075 3.22495 2.82575 3.3231 2.82575C3.46486 2.82575 3.58209 2.79303 3.67478 2.7276C3.76748 2.66217 3.84108 2.57221 3.89561 2.45771L4.1287 2.61719C4.066 2.75896 3.96785 2.87618 3.83427 2.96888C3.70341 3.06157 3.53166 3.10791 3.31901 3.10791ZM5.69742 3.10791C5.5502 3.10791 5.41661 3.08201 5.29666 3.03022C5.17943 2.97842 5.07856 2.90481 4.99405 2.80939C4.91226 2.71125 4.84956 2.59538 4.80594 2.4618C4.76232 2.32548 4.74051 2.17281 4.74051 2.00379C4.74051 1.83749 4.76232 1.68618 4.80594 1.54987C4.84956 1.41356 4.91226 1.29769 4.99405 1.20227C5.07856 1.10413 5.17943 1.02916 5.29666 0.97736C5.41661 0.925562 5.5502 0.899663 5.69742 0.899663C5.84463 0.899663 5.97686 0.925562 6.09408 0.97736C6.21404 1.02916 6.31491 1.10413 6.3967 1.20227C6.48121 1.29769 6.54528 1.41356 6.5889 1.54987C6.63252 1.68618 6.65433 1.83749 6.65433 2.00379C6.65433 2.17281 6.63252 2.32548 6.5889 2.4618C6.54528 2.59538 6.48121 2.71125 6.3967 2.80939C6.31491 2.90481 6.21404 2.97842 6.09408 3.03022C5.97686 3.08201 5.84463 3.10791 5.69742 3.10791ZM5.69742 2.82575C5.88007 2.82575 6.02729 2.77122 6.13907 2.66217C6.25084 2.55312 6.30673 2.3841 6.30673 2.15509V1.85248C6.30673 1.62348 6.25084 1.45445 6.13907 1.3454C6.02729 1.23635 5.88007 1.18183 5.69742 1.18183C5.51476 1.18183 5.36754 1.23635 5.25577 1.3454C5.14399 1.45445 5.0881 1.62348 5.0881 1.85248V2.15509C5.0881 2.3841 5.14399 2.55312 5.25577 2.66217C5.36754 2.77122 5.51476 2.82575 5.69742 2.82575ZM7.32338 3.05884V0.948735H7.65053V1.29224H7.66689C7.6887 1.24044 7.71596 1.19137 7.74868 1.14502C7.78139 1.09595 7.82092 1.05369 7.86727 1.01825C7.91634 0.982813 7.97359 0.954187 8.03902 0.932377C8.10445 0.910567 8.18078 0.899663 8.26802 0.899663C8.48885 0.899663 8.66605 0.970545 8.79964 1.11231C8.93323 1.25135 9.00002 1.449 9.00002 1.70527V3.05884H8.67287V1.76252C8.67287 1.56895 8.63061 1.42583 8.5461 1.33313C8.46159 1.23772 8.33754 1.19001 8.17397 1.19001C8.10854 1.19001 8.04447 1.19819 7.98177 1.21454C7.91907 1.2309 7.86318 1.25544 7.81411 1.28815C7.76503 1.32087 7.7255 1.36312 7.69551 1.41492C7.66553 1.46672 7.65053 1.5267 7.65053 1.59485V3.05884H7.32338Z" fill="#201435"/>
</svg>
