<svg width="179" height="216" viewBox="0 0 179 216" fill="none" xmlns="http://www.w3.org/2000/svg">
<g id="Frame 811338">
<path d="M176.017 0V0.5H178.5V3H179V9H178.5V15H179V21H178.5V27H179V33H178.5V39H179V45H178.5V51H179V57H178.5V63H179V69H178.5V75H179V81H178.5V87H179V93H178.5V99H179V105H178.5V111H179V117H178.5V123H179V129H178.5V135H179V141H178.5V147H179V153H178.5V159H179V165H178.5V171H179V177H178.5V183H179V189H178.5V195H179V201H178.5V207H179V213H178.5V215.5H176.017V216H170.05V215.5H164.083V216H158.116V215.5H152.15V216H146.184V215.5H140.217V216H134.25V215.5H128.283V216H122.316V215.5H116.35V216H110.384V215.5H104.417V216H98.4502V215.5H92.4834V216H86.5166V215.5H80.5498V216H74.583V215.5H68.6162V216H62.6504V215.5H56.6836V216H50.7168V215.5H44.75V216H38.7832V215.5H32.8164V216H26.8496V215.5H20.8838V216H14.917V215.5H8.9502V216H2.9834V215.5H0.5V213H0V207H0.5V201H0V195H0.5V189H0V183H0.5V177H0V171H0.5V165H0V159H0.5V153H0V147H0.5V141H0V135H0.5V129H0V123H0.5V117H0V111H0.5V105H0V99H0.5V93H0V87H0.5V81H0V75H0.5V69H0V63H0.5V57H0V51H0.5V45H0V39H0.5V33H0V27H0.5V21H0V15H0.5V9H0V3H0.5V0.5H2.9834V0H8.9502V0.5H14.917V0H20.8838V0.5H26.8496V0H32.8164V0.5H38.7832V0H44.75V0.5H50.7168V0H56.6836V0.5H62.6504V0H68.6162V0.5H74.583V0H80.5498V0.5H86.5166V0H92.4834V0.5H98.4502V0H104.417V0.5H110.384V0H116.35V0.5H122.316V0H128.283V0.5H134.25V0H140.217V0.5H146.184V0H152.15V0.5H158.116V0H164.083V0.5H170.05V0H176.017Z" fill="#BFDBFE"/>
<path d="M176.017 0V0.5H178.5V3H179V9H178.5V15H179V21H178.5V27H179V33H178.5V39H179V45H178.5V51H179V57H178.5V63H179V69H178.5V75H179V81H178.5V87H179V93H178.5V99H179V105H178.5V111H179V117H178.5V123H179V129H178.5V135H179V141H178.5V147H179V153H178.5V159H179V165H178.5V171H179V177H178.5V183H179V189H178.5V195H179V201H178.5V207H179V213H178.5V215.5H176.017V216H170.05V215.5H164.083V216H158.116V215.5H152.15V216H146.184V215.5H140.217V216H134.25V215.5H128.283V216H122.316V215.5H116.35V216H110.384V215.5H104.417V216H98.4502V215.5H92.4834V216H86.5166V215.5H80.5498V216H74.583V215.5H68.6162V216H62.6504V215.5H56.6836V216H50.7168V215.5H44.75V216H38.7832V215.5H32.8164V216H26.8496V215.5H20.8838V216H14.917V215.5H8.9502V216H2.9834V215.5H0.5V213H0V207H0.5V201H0V195H0.5V189H0V183H0.5V177H0V171H0.5V165H0V159H0.5V153H0V147H0.5V141H0V135H0.5V129H0V123H0.5V117H0V111H0.5V105H0V99H0.5V93H0V87H0.5V81H0V75H0.5V69H0V63H0.5V57H0V51H0.5V45H0V39H0.5V33H0V27H0.5V21H0V15H0.5V9H0V3H0.5V0.5H2.9834V0H8.9502V0.5H14.917V0H20.8838V0.5H26.8496V0H32.8164V0.5H38.7832V0H44.75V0.5H50.7168V0H56.6836V0.5H62.6504V0H68.6162V0.5H74.583V0H80.5498V0.5H86.5166V0H92.4834V0.5H98.4502V0H104.417V0.5H110.384V0H116.35V0.5H122.316V0H128.283V0.5H134.25V0H140.217V0.5H146.184V0H152.15V0.5H158.116V0H164.083V0.5H170.05V0H176.017Z" stroke="#1D4ED8" stroke-dasharray="6 6"/>
<g id="Vector">
<path fill-rule="evenodd" clip-rule="evenodd" d="M120.744 79H60.0465C57.8117 79 56 80.8333 56 83.0947V132.231C56 134.492 57.8117 136.326 60.0465 136.326H120.744C122.979 136.326 124.791 134.492 124.791 132.231V83.0947C124.791 80.8333 122.979 79 120.744 79ZM60.0452 132.231V83.0944H120.743V132.231H60.0452Z" fill="#1D4ED8"/>
<path fill-rule="evenodd" clip-rule="evenodd" d="M67.1276 95.8902C67.1276 100.13 70.5245 103.568 74.7148 103.568C78.9051 103.568 82.302 100.13 82.302 95.8902C82.302 91.65 78.9051 88.2126 74.7148 88.2126C70.5245 88.2126 67.1276 91.65 67.1276 95.8902ZM78.2542 95.8899C78.2542 97.8686 76.669 99.4727 74.7135 99.4727C72.758 99.4727 71.1728 97.8686 71.1728 95.8899C71.1728 93.9111 72.758 92.307 74.7135 92.307C76.669 92.307 78.2542 93.9111 78.2542 95.8899Z" fill="#1D4ED8"/>
<path d="M70.5753 127.542C69.7817 128.338 68.5007 128.333 67.714 127.53C66.9273 126.727 66.9328 125.43 67.7264 124.634L84.367 107.94L93.7461 116.196C94.5892 116.938 94.6782 118.231 93.9449 119.084C93.2115 119.937 91.9336 120.027 91.0905 119.285L84.547 113.526L70.5753 127.542Z" fill="#1D4ED8"/>
<path d="M85.7557 127.537C84.9656 128.336 83.6846 128.336 82.8944 127.537C82.1042 126.737 82.1042 125.441 82.8943 124.641L109.523 97.6932L124.101 110.637C124.941 111.383 125.025 112.676 124.288 113.526C123.551 114.376 122.272 114.461 121.432 113.715L109.704 103.301L85.7557 127.537Z" fill="#1D4ED8"/>
</g>
</g>
</svg>
