<svg width="121" height="40" viewBox="0 0 121 40" fill="none" xmlns="http://www.w3.org/2000/svg">
<g id="Frame 73">
<path d="M118.807 0V0.500899H120.319V1.99968H120.82V6.00002H120.319V10.0004H120.82V13.9997H120.319V18.0001H120.82V22.0004H120.319V25.9998H120.82V30.0001H120.319V33.9995H120.82V37.9998H120.319V39.4986H118.807V39.9995H114.779V39.4986H110.751V39.9995H106.725V39.4986H102.697V39.9995H98.6702V39.4986H94.6425V39.9995H90.6148V39.4986H86.588V39.9995H82.5603V39.4986H78.5335V39.9995H74.5058V39.4986H70.478V39.9995H66.4513V39.4986H62.4235V39.9995H58.3968V39.4986H54.369V39.9995H50.3413V39.4986H46.3146V39.9995H42.2868V39.4986H38.2601V39.9995H34.2323V39.4986H30.2046V39.9995H26.1778V39.4986H22.1501V39.9995H18.1233V39.4986H14.0956V39.9995H10.0679V39.4986H6.04111V39.9995H2.01338V39.4986H0.500899V37.9998H0V33.9995H0.500899V30.0001H0V25.9998H0.500899V22.0004H0V18.0001H0.500899V13.9997H0V10.0004H0.500899V6.00002H0V1.99968H0.500899V0.500899H2.01338V0H6.04111V0.500899H10.0679V0H14.0956V0.500899H18.1233V0H22.1501V0.500899H26.1778V0H30.2046V0.500899H34.2323V0H38.2601V0.500899H42.2868V0H46.3146V0.500899H50.3413V0H54.369V0.500899H58.3968V0H62.4235V0.500899H66.4513V0H70.478V0.500899H74.5058V0H78.5335V0.500899H82.5603V0H86.588V0.500899H90.6148V0H94.6425V0.500899H98.6702V0H102.697V0.500899H106.725V0H110.751V0.500899H114.779V0H118.807Z" fill="#BFDBFE"/>
<path d="M118.807 0V0.500899H120.319V1.99968H120.82V6.00002H120.319V10.0004H120.82V13.9997H120.319V18.0001H120.82V22.0004H120.319V25.9998H120.82V30.0001H120.319V33.9995H120.82V37.9998H120.319V39.4986H118.807V39.9995H114.779V39.4986H110.751V39.9995H106.725V39.4986H102.697V39.9995H98.6702V39.4986H94.6425V39.9995H90.6148V39.4986H86.588V39.9995H82.5603V39.4986H78.5335V39.9995H74.5058V39.4986H70.478V39.9995H66.4513V39.4986H62.4235V39.9995H58.3968V39.4986H54.369V39.9995H50.3413V39.4986H46.3146V39.9995H42.2868V39.4986H38.2601V39.9995H34.2323V39.4986H30.2046V39.9995H26.1778V39.4986H22.1501V39.9995H18.1233V39.4986H14.0956V39.9995H10.0679V39.4986H6.04111V39.9995H2.01338V39.4986H0.500899V37.9998H0V33.9995H0.500899V30.0001H0V25.9998H0.500899V22.0004H0V18.0001H0.500899V13.9997H0V10.0004H0.500899V6.00002H0V1.99968H0.500899V0.500899H2.01338V0H6.04111V0.500899H10.0679V0H14.0956V0.500899H18.1233V0H22.1501V0.500899H26.1778V0H30.2046V0.500899H34.2323V0H38.2601V0.500899H42.2868V0H46.3146V0.500899H50.3413V0H54.369V0.500899H58.3968V0H62.4235V0.500899H66.4513V0H70.478V0.500899H74.5058V0H78.5335V0.500899H82.5603V0H86.588V0.500899H90.6148V0H94.6425V0.500899H98.6702V0H102.697V0.500899H106.725V0H110.751V0.500899H114.779V0H118.807Z" stroke="#1D4ED8" stroke-dasharray="4 4"/>
<g id="Vector">
<path fill-rule="evenodd" clip-rule="evenodd" d="M68.6405 12.0935H51.8457C51.2273 12.0935 50.726 12.6061 50.726 13.2384V26.9773C50.726 27.6096 51.2273 28.1222 51.8457 28.1222H68.6405C69.2589 28.1222 69.7602 27.6096 69.7602 26.9773V13.2384C69.7602 12.6061 69.2589 12.0935 68.6405 12.0935ZM51.8453 26.9772V13.2383H68.6402V26.9772H51.8453Z" fill="#1D4ED8"/>
<path fill-rule="evenodd" clip-rule="evenodd" d="M53.805 16.8161C53.805 18.0017 54.7449 18.9628 55.9043 18.9628C57.0638 18.9628 58.0037 18.0017 58.0037 16.8161C58.0037 15.6305 57.0638 14.6694 55.9043 14.6694C54.7449 14.6694 53.805 15.6305 53.805 16.8161ZM56.8837 16.816C56.8837 17.3693 56.4451 17.8178 55.904 17.8178C55.3629 17.8178 54.9243 17.3693 54.9243 16.816C54.9243 16.2628 55.3629 15.8142 55.904 15.8142C56.4451 15.8142 56.8837 16.2628 56.8837 16.816Z" fill="#1D4ED8"/>
<path d="M54.759 25.6663C54.5394 25.8889 54.1849 25.8873 53.9673 25.6628C53.7496 25.4383 53.7511 25.0758 53.9707 24.8532L58.5751 20.1855L61.1702 22.4937C61.4035 22.7012 61.4282 23.0628 61.2252 23.3013C61.0223 23.5399 60.6687 23.565 60.4354 23.3576L58.6249 21.7472L54.759 25.6663Z" fill="#1D4ED8"/>
<path d="M58.9593 25.6648C58.7407 25.8883 58.3863 25.8883 58.1676 25.6648C57.949 25.4412 57.949 25.0788 58.1676 24.8552L65.5357 17.3203L69.5694 20.9394C69.8018 21.148 69.8249 21.5097 69.621 21.7473C69.4171 21.9849 69.0634 22.0086 68.831 21.8L65.5857 18.8883L58.9593 25.6648Z" fill="#1D4ED8"/>
</g>
</g>
</svg>
