<svg width="485" height="256" viewBox="0 0 485 256" fill="none" xmlns="http://www.w3.org/2000/svg">
<g id="Image 01">
<path d="M0 6C0 2.68629 2.68629 0 6 0H478.333C481.647 0 484.333 2.68629 484.333 6V250C484.333 253.314 481.647 256 478.333 256H6C2.68629 256 0 253.314 0 250V6Z" fill="#DBEAFE"/>
<g id="Vector">
<path fill-rule="evenodd" clip-rule="evenodd" d="M272.882 98H211.118C208.844 98 207 99.9188 207 102.286V153.714C207 156.081 208.844 158 211.118 158H272.882C275.156 158 277 156.081 277 153.714V102.286C277 99.9188 275.156 98 272.882 98ZM211.116 153.714V102.285H272.881V153.714H211.116Z" fill="#643DC1"/>
<path fill-rule="evenodd" clip-rule="evenodd" d="M218.323 115.678C218.323 120.116 221.78 123.714 226.044 123.714C230.308 123.714 233.764 120.116 233.764 115.678C233.764 111.24 230.308 107.642 226.044 107.642C221.78 107.642 218.323 111.24 218.323 115.678ZM229.645 115.678C229.645 117.749 228.032 119.428 226.042 119.428C224.053 119.428 222.439 117.749 222.439 115.678C222.439 113.607 224.053 111.928 226.042 111.928C228.032 111.928 229.645 113.607 229.645 115.678Z" fill="#643DC1"/>
<path d="M221.832 148.807C221.024 149.64 219.72 149.634 218.92 148.794C218.119 147.953 218.125 146.596 218.932 145.763L235.866 128.291L245.41 136.931C246.268 137.708 246.358 139.061 245.612 139.954C244.866 140.847 243.565 140.941 242.707 140.164L236.049 134.137L221.832 148.807Z" fill="#643DC1"/>
<path d="M237.279 148.801C236.475 149.638 235.171 149.638 234.367 148.801C233.563 147.964 233.563 146.608 234.367 145.771L261.464 117.565L276.298 131.113C277.153 131.893 277.238 133.247 276.488 134.137C275.738 135.026 274.437 135.115 273.583 134.334L261.648 123.435L237.279 148.801Z" fill="#643DC1"/>
</g>
</g>
</svg>
