<svg width="69" height="58" viewBox="0 0 69 58" fill="none" xmlns="http://www.w3.org/2000/svg">
<g id="Vector">
<path fill-rule="evenodd" clip-rule="evenodd" d="M64.9411 0H4.05882C1.8172 0 0 1.83883 0 4.10714V53.3928C0 55.6611 1.8172 57.5 4.05882 57.5H64.9411C67.1828 57.5 69 55.6611 69 53.3928V4.10714C69 1.83883 67.1828 0 64.9411 0ZM4.05755 53.3925V4.10682H64.9399V53.3925H4.05755Z" fill="#1DD82D"/>
<path fill-rule="evenodd" clip-rule="evenodd" d="M11.1614 16.9415C11.1614 21.1946 14.5687 24.6424 18.7717 24.6424C22.9747 24.6424 26.382 21.1946 26.382 16.9415C26.382 12.6885 22.9747 9.24065 18.7717 9.24065C14.5687 9.24065 11.1614 12.6885 11.1614 16.9415ZM22.3219 16.9412C22.3219 18.926 20.7318 20.535 18.7704 20.535C16.809 20.535 15.2189 18.926 15.2189 16.9412C15.2189 14.9565 16.809 13.3475 18.7704 13.3475C20.7318 13.3475 22.3219 14.9565 22.3219 16.9412Z" fill="#1DD82D"/>
<path d="M14.6196 48.6898C13.8237 49.4883 12.5387 49.4827 11.7496 48.6773C10.9605 47.8718 10.9661 46.5716 11.762 45.7731L28.4533 29.0285L37.8609 37.3087C38.7066 38.053 38.7958 39.3501 38.0603 40.2059C37.3247 41.0616 36.0429 41.1519 35.1972 40.4076L28.6338 34.6308L14.6196 48.6898Z" fill="#1DD82D"/>
<path d="M29.8462 48.6842C29.0537 49.4863 27.7688 49.4863 26.9762 48.6844C26.1836 47.8824 26.1836 46.5822 26.9761 45.7802L53.6858 18.7501L68.3084 31.7331C69.1509 32.4811 69.2346 33.7786 68.4954 34.6311C67.7562 35.4837 66.474 35.5684 65.6315 34.8203L53.8672 24.3751L29.8462 48.6842Z" fill="#1DD82D"/>
</g>
</svg>
