<svg width="60" height="55" viewBox="0 0 60 55" fill="none" xmlns="http://www.w3.org/2000/svg">
<g id="Frame 1859">
<path d="M55 0V0.5H59.5V4.58301H60V13.75H59.5V22.917H60V32.083H59.5V41.25H60V50.417H59.5V54.5H55V55H45V54.5H35V55H25V54.5H15V55H5V54.5H0.5V50.417H0V41.25H0.5V32.083H0V22.917H0.5V13.75H0V4.58301H0.5V0.5H5V0H15V0.5H25V0H35V0.5H45V0H55Z" fill="#FF7272"/>
<path d="M55 0V0.5H59.5V4.58301H60V13.75H59.5V22.917H60V32.083H59.5V41.25H60V50.417H59.5V54.5H55V55H45V54.5H35V55H25V54.5H15V55H5V54.5H0.5V50.417H0V41.25H0.5V32.083H0V22.917H0.5V13.75H0V4.58301H0.5V0.5H5V0H15V0.5H25V0H35V0.5H45V0H55Z" stroke="white" stroke-dasharray="9 9"/>
</g>
</svg>
